<?xml version="1.0" standalone="no"?><!DOCTYPE svg PUBLIC "-//W3C//DTD SVG 1.1//EN" "http://www.w3.org/Graphics/SVG/1.1/DTD/svg11.dtd"><svg xmlns:xlink="http://www.w3.org/1999/xlink" xmlns="http://www.w3.org/2000/svg" version="1.1" width="236.9140625" height="200" viewBox="0 0 236.9140625 200"><defs><style type="text/css"><![CDATA[
@font-face {
  font-family: "ifont";
  src: url("//at.alicdn.com/t/font_1442373896_4754455.eot?#iefix") format("embedded-opentype"), url("//at.alicdn.com/t/font_1442373896_4754455.woff") format("woff"), url("//at.alicdn.com/t/font_1442373896_4754455.ttf") format("truetype"), url("//at.alicdn.com/t/font_1442373896_4754455.svg#ifont") format("svg");
}

]]></style></defs><g class="transform-group"><g transform="scale(0.1953125, 0.1953125)"><path d="M1062.17901 118.010947 1113.214477 118.010947C1120.066266 131.835815 1126.857822 145.661898 1133.65179 159.48555 1157.510182 145.661898 1181.368571 131.835815 1205.177573 118.010947L1205.177573 159.48555 1194.96012 159.48555 1194.96012 221.698064C1170.725893 223.77745 1169.709207 225.990597 1154.089106 232.067021 1161.310707 251.42597 1164.253556 272.595566 1164.302945 304.648488 1157.508977 301.192577 1150.663211 297.734233 1143.923451 294.279534 1127.336052 307.727438 1155.05038 313.801432 1113.214477 325.386399L1113.214477 346.123094 1082.615121 346.123094C1070.204085 368.182811 1059.611998 368.69597 1051.96156 397.966654 1014.942868 405.553368 1006.970796 423.726702 980.491189 439.441257L980.491189 408.334393 990.707434 408.334393 990.707434 377.227528 970.272531 377.227528C963.424356 403.067834 945.984097 424.075698 929.3979 439.440042L908.964201 439.440042C899.120174 450.187178 918.486595 449.537824 919.181654 449.80778 930.844632 461.606769 919.233452 453.93858 939.617762 460.176734L939.617762 480.91343 960.052669 480.91343C963.424356 474.001605 966.847841 467.088562 970.271326 460.176734 987.282747 463.632648 1004.292961 467.088562 1021.305587 470.544476L1021.305587 491.282383 990.70623 491.282383C974.497078 519.768738 965.455317 509.912942 960.052669 553.493682 984.447108 567.589724 994.23813 583.061073 1000.871885 615.706198L1021.306791 615.706198C1017.882101 626.073937 1014.514028 636.442891 1011.142341 646.811847L1021.306791 646.811847 1021.306791 657.180801 1011.142341 657.180801 1011.142341 667.547325C1012.480658 671.409386 1046.02527 682.265964 1031.580861 719.3921 1024.730276 722.848013 1017.883306 726.303927 1011.142341 729.761054L1011.142341 760.866703 1000.873089 760.866703C991.45911 776.608011 992.580595 786.193853 990.708639 812.709048L970.273735 812.709048 970.273735 833.445741 949.837625 833.445741C942.667822 865.443945 929.93636 877.540857 898.799751 885.290517L898.799751 895.659472 857.929941 895.659472 857.929941 916.396166C838.457514 906.135436 860.121115 910.348926 847.711283 895.659472L837.49383 895.659472 837.49383 916.396166C822.943415 929.088925 776.081904 933.327951 755.751799 937.135292L755.751799 947.504247C782.82046 971.102223 771.692326 975.854408 766.022254 1009.715545 749.009629 1013.171458 731.946412 1016.629803 714.933787 1020.084501L714.933787 978.609896C725.15124 975.153983 735.314486 971.695638 745.587348 968.240941 742.162658 957.871986 738.739173 947.504247 735.314486 937.135292 711.5621 933.679379 687.704913 930.221034 663.844115 926.768769L663.844115 895.660688C620.083254 888.155447 600.181986 894.905543 541.337075 895.660688L541.337075 937.135292 531.065414 937.135292C511.966413 908.83742 518.814588 927.279495 490.246195 916.396166 481.954905 902.760996 483.024594 904.164277 469.811292 895.659472L469.811292 885.290517 480.028745 885.290517C480.403375 881.186468 470.989393 862.014785 469.811292 843.818345L439.157728 843.818345C443.758112 811.361703 446.700959 812.22629 459.593838 791.973569L469.811292 791.973569C481.314056 765.295427 462.804108 737.728383 459.593838 719.3921 447.930861 731.191089 455.527095 719.417635 449.376385 740.128795 421.397043 733.433419 426.104638 726.548345 398.285509 719.3921 382.023351 739.130446 360.141716 747.393264 326.813933 750.497749 317.183122 731.811255 312.68995 734.161812 306.377822 709.023146 289.366404 705.567232 272.354983 702.111318 255.342358 698.656622L255.342358 719.393315C236.297566 713.453086 229.022961 715.09957 245.124905 698.656622 221.319517 695.198278 197.459922 691.742364 173.600327 688.287666 170.231049 681.375841 166.80636 674.462798 163.435877 667.54854 156.587702 664.092629 149.793735 660.636715 142.999767 657.182017 117.427225 621.808158 128.342143 602.907645 71.528192 594.970718 60.827693 554.359485 42.746584 558.948724 40.821627 501.65134 47.668597 505.107254 54.462564 508.564383 61.256532 512.020294L61.256532 449.80778 51.092082 449.80778C54.462564 442.895956 57.833047 435.982913 61.256532 429.071085L51.092082 429.071085C27.875745 400.233305 23.274157 423.02263 20.438519 366.858571L0.003614 366.858571 0.003614 346.121879C6.797581 349.579008 13.644552 353.034919 20.438519 356.490833L20.438519 325.385184C2.838047 313.694421 6.584366 318.82357 0.003614 294.278319 22.579101 281.911452 30.496964 270.112463 61.257736 263.171455L61.257736 283.909363C95.281781 276.996322 129.360034 270.084495 163.437082 263.171455 174.349591 220.643781 188.847002 237.169416 173.601532 190.589984L204.255094 190.589984 204.255094 180.222246C211.049062 183.678157 217.897237 187.134071 224.691204 190.589984L224.691204 169.852074C231.485172 166.39616 238.332142 162.940249 245.12611 159.48312L245.12611 149.115381C252.882556 136.74973 244.323843 148.19729 255.343562 138.746425 268.183438 158.539493 265.722432 155.921413 296.214577 159.484335L296.214577 128.378686 306.379027 128.378686C318.310632 114.257109 324.996185 112.527937 347.251249 107.640775 359.983912 156.350666 391.012109 148.925683 398.287918 211.327895 386.679148 223.126881 394.222379 211.35343 388.123467 232.065805 440.122616 240.652083 469.973914 263.549634 480.031154 315.015012 510.631712 318.472141 541.339484 321.926839 571.938838 325.383968L571.938838 335.752922 592.374948 335.752922 592.374948 346.120661C609.386369 349.57779 626.398992 353.033704 643.411618 356.489618L643.411618 366.857356C653.680869 363.401442 663.846524 359.945531 674.062773 356.489618L674.062773 346.120661 745.589757 346.120661C752.383725 335.752922 759.177693 325.383968 766.024664 315.015012L786.460774 315.015012C789.563834 310.748017 769.982992 291.685775 776.190318 273.540409L786.460774 273.540409 786.460774 263.171455C828.723106 278.509043 826.156094 262.604792 868.098005 252.803713L868.098005 232.067021C888.532908 228.609892 908.969019 225.152763 929.402718 221.698064 925.98044 211.330326 922.609958 200.960156 919.187677 190.5912 880.08261 193.588677 872.324961 204.146114 857.933555 190.5912L847.714897 190.5912C851.087788 173.310418 854.510069 156.028421 857.933555 138.74764L898.803364 138.74764C902.176256 128.379901 905.545534 118.010947 908.969019 107.641991L919.186472 107.641991 919.186472 86.904083 929.401514 86.904083C936.412311 66.976038 924.054277 55.258522 919.186472 45.430692L929.401514 45.430692C947.270613 24.179626 970.810988 24.045864 1011.14475 24.694 1028.638011 57.499637 1052.763826 75.671757 1062.17901 118.010947L1062.17901 118.010947Z" fill="#a5ee18"></path></g></g></svg>