<?xml version="1.0" standalone="no"?><!DOCTYPE svg PUBLIC "-//W3C//DTD SVG 1.1//EN" "http://www.w3.org/Graphics/SVG/1.1/DTD/svg11.dtd"><svg xmlns:xlink="http://www.w3.org/1999/xlink" xmlns="http://www.w3.org/2000/svg" version="1.1" width="200.78125" height="200" viewBox="0 0 200.78125 200"><defs><style type="text/css"><![CDATA[
@font-face {
  font-family: "ifont";
  src: url("//at.alicdn.com/t/font_1442373896_4754455.eot?#iefix") format("embedded-opentype"), url("//at.alicdn.com/t/font_1442373896_4754455.woff") format("woff"), url("//at.alicdn.com/t/font_1442373896_4754455.ttf") format("truetype"), url("//at.alicdn.com/t/font_1442373896_4754455.svg#ifont") format("svg");
}

]]></style></defs><g class="transform-group"><g transform="scale(0.1953125, 0.1953125)"><path d="M490.133744 581.32454c-18.103561-4.356804-34.683248-13.550399-47.965123-26.60235l0 0c-18.904099-18.77655-29.515837-44.329978-29.477237-70.974285 0.033566-26.689621 10.630199-52.281649 29.477237-71.179035l0 0c13.270127-13.13083 29.843101-22.428478 47.965123-26.911153l0-11.298153c0-13.016707 10.552998-23.569706 23.573062-23.569706 13.018386 0 23.571384 10.554677 23.571384 23.569706l0 11.197456c18.053213 4.257786 34.557378 13.469842 47.656321 26.60235l0 0c18.76648 18.97123 29.410106 44.499484 29.685343 71.179035-0.006713 13.161039-10.678869 23.824804-23.839908 23.818091-13.152648-0.006713-23.811378-10.665443-23.818091-23.818091 0.172862-14.161291-5.516493-27.763717-15.712018-37.5917-3.947305-4.299743-8.691791-7.788878-13.96829-10.26937l0 104.043032c22.034083 4.113454 42.280803 14.864489 58.031422 30.813144l0 0c45.209394 45.201003 45.216108 118.492987 0.018461 163.702381-0.006713 0.006713-0.011748 0.013426-0.018461 0.018461l0 0c-15.985577 15.629783-36.1316 26.327113-58.031422 30.813144l0 14.89302c0 13.018386-10.552998 23.571384-23.571384 23.571384-13.020064 0-23.573062-10.552998-23.573062-23.571384l0-14.481842c-21.389626-4.249394-41.06741-14.676522-56.593139-29.992467l-2.156584-1.12948c-21.700107-21.827655-33.818936-51.392163-33.689709-82.168385-0.055383-13.063699 10.455658-23.715716 23.521036-23.82816 13.187892 0.053705 23.913752 10.641947 24.138641 23.82816-0.154401 18.063283 6.907783 35.436794 19.615688 48.273926l1.131158 1.131158c6.830583 6.328778 14.815819 11.278014 23.522714 14.584217l0-134.653105 0 0L490.133744 581.32454 490.133744 581.32454zM885.772167 373.849368 885.772167 373.849368c0-12.989855 10.529503-23.521036 23.522714-23.521036s23.522714 10.531181 23.522714 23.521036l0 406.83588c0 12.989855-10.529503 23.521036-23.522714 23.521036s-23.522714-10.527824-23.522714-23.521036L885.772167 373.849368 885.772167 373.849368zM797.135708 780.685248 797.135708 780.685248c-0.053705 12.87741-10.534537 23.270973-23.411948 23.217268-0.139297 0-0.276916-0.001678-0.416212-0.005035-12.827062-0.10741-23.24412-10.386849-23.521036-23.212233L749.786512 373.849368c0.109088-13.114047 10.715791-23.717394 23.826482-23.829839 13.045238-0.114123 23.717394 10.370066 23.82816 23.418661 0.001678 0.13594 0.001678 0.273559 0 0.411178l0 406.83588 0 0L797.135708 780.685248zM230.482655 373.849368 230.482655 373.849368c-0.285307-12.874054 9.921967-23.539497 22.796021-23.823125 0.172862-0.003357 0.345725-0.005035 0.518587-0.005035 13.041882 0.169506 23.524392 10.787957 23.521036 23.829839l0 406.83588c-0.169506 12.988177-10.833271 23.381739-23.821447 23.212233-0.001678 0-0.003357 0-0.005035 0-12.704548 0.172862-23.143424-9.990776-23.316286-22.693646-0.001678-0.174541-0.001678-0.344047 0-0.518587L230.175531 373.849368l0 0L230.482655 373.849368zM141.945213 780.685248 141.945213 780.685248c-0.280272 13.063699-11.074942 23.442157-24.138641 23.212233-12.875732 0.171184-23.452227-10.128395-23.620054-23.004127 0-0.070488-0.001678-0.139297-0.001678-0.208106L94.18484 373.849368c-0.112444-13.046916 10.371745-23.714038 23.415304-23.82816 0.068809 0 0.137619 0 0.206428 0 13.236562-0.057061 24.02284 10.594955 24.138641 23.829839L141.945213 780.685248 141.945213 780.685248zM444.120456 244.022985l504.204409 0 0-25.472871L513.552405 85.026489l-434.465335 133.523625 0 25.472871L444.120456 244.022985zM445.249935 323.110055 39.85066 323.110055C18.069996 323.336622 0.228246 305.864092 0.001678 284.08175 0 283.977697 0 283.875322 0 283.771269l0-94.18484c0.003357-18.506348 12.78007-34.562413 30.809788-38.72118l471.135662-144.617029c7.657973-2.378117 15.858028-2.378117 23.521036 0l473.596014 145.541759c16.64514 5.060002 28.02385 20.402799 28.042311 37.79645l0 0 0 94.18484c-0.114123 21.743742-17.801472 39.293472-39.545213 39.236411L445.249935 323.00768 445.249935 323.110055zM79.08707 980.866633 79.08707 980.866633c0 21.841082-17.70581 39.545213-39.545213 39.545213C17.702453 1020.411846 0 1002.707714 0 980.866633l0-110.413767c0.110766-21.839403 17.907203-39.45123 39.748285-39.337107 0.035244 0 0.068809 0 0.105731 0l947.707259 0c21.758846 0 39.431091 17.581618 39.545213 39.337107l0 110.413767c1.111019 21.75549-15.624748 40.292046-37.376881 41.403065-21.75549 1.111019-40.290368-15.626426-41.403065-37.376881-0.067131-1.340942-0.067131-2.685241 0-4.022827l0-70.663804L79.08707 910.206185 79.08707 980.866633 79.08707 980.866633 79.08707 980.866633zM475.856652 521.032481 475.856652 521.032481 475.856652 521.032481c4.345056 3.964088 9.133177 7.414623 14.277093 10.271048l0-95.82955c-5.323491 2.559371-10.156925 6.038436-14.277093 10.26937l0 0c-10.197204 9.827983-15.883202 23.430409-15.713697 37.5917-0.04867 14.137796 5.618867 27.694908 15.713697 37.5917l0 0L475.856652 521.032481zM537.48294 716.182394 537.48294 716.182394c9.113038-3.56298 17.422181-8.90661 24.444088-15.713697l0 0c26.57382-26.657733 26.57382-69.789422 0-96.445477l0 0c-7.00848-6.830583-15.322658-12.175891-24.444088-15.715375L537.48294 716.182394 537.48294 716.182394z" fill="#e3c56d"></path></g></g></svg>