<?xml version="1.0" standalone="no"?><!DOCTYPE svg PUBLIC "-//W3C//DTD SVG 1.1//EN" "http://www.w3.org/Graphics/SVG/1.1/DTD/svg11.dtd"><svg xmlns:xlink="http://www.w3.org/1999/xlink" xmlns="http://www.w3.org/2000/svg" version="1.1" width="281.640625" height="200" viewBox="0 0 281.640625 200"><defs><style type="text/css"><![CDATA[
@font-face {
  font-family: "ifont";
  src: url("//at.alicdn.com/t/font_1442373896_4754455.eot?#iefix") format("embedded-opentype"), url("//at.alicdn.com/t/font_1442373896_4754455.woff") format("woff"), url("//at.alicdn.com/t/font_1442373896_4754455.ttf") format("truetype"), url("//at.alicdn.com/t/font_1442373896_4754455.svg#ifont") format("svg");
}

]]></style></defs><g class="transform-group"><g transform="scale(0.1953125, 0.1953125)"><path d="M85.880843 140.913413l371.024015 0 0 247.349343-371.024015 0 0-247.349343ZM454.057806 255.953071l371.024015 0 0 132.309685-371.024015 0 0-132.309685ZM183.68176 37.387107l195.601833 0 0 103.526306-195.601833 0 0-103.526306ZM185.152215 0l238.745616 0 0 34.508769-238.745616 0 0-34.508769ZM960.269844 40.234158l215.718912 0 0 350.875649-215.718912 0 0-350.875649ZM960.269844 37.387107A3.401 0.736 0 1 1 960.269844 68.673388ZM695.650474 40.234158l215.687626 0 0 350.875649-215.687626 0 0-350.875649ZM695.650474 37.387107A3.401 0.736 0 1 1 695.650474 68.673388ZM152.020043 816.790956 28.407944 402.623159l365.267339-2.878338 983.60941-2.878338c0 0-11.482065 319.245218-152.426764 419.924473L152.020043 816.790956zM354.817721 520.541155c-46.835564 0-84.81711 37.35582-84.81711 83.409227 0 46.053407 37.981546 83.377941 84.81711 83.377941 46.835564 0 84.879682-37.35582 84.879682-83.377941C439.666117 557.896975 401.653284 520.541155 354.817721 520.541155zM633.828781 520.541155c-46.86685 0-84.879682 37.35582-84.879682 83.409227 0 46.053407 37.981546 83.377941 84.879682 83.377941 46.835564 0 84.81711-37.35582 84.81711-83.377941C718.645891 557.896975 680.664345 520.541155 633.828781 520.541155zM898.416865 517.662817c-46.86685 0-84.81711 37.324534-84.81711 83.409227 0 46.053407 37.95026 83.409227 84.81711 83.409227 46.86685 0 84.81711-37.35582 84.81711-83.409227C983.265261 554.987351 945.283715 517.662817 898.416865 517.662817zM304.478093 601.072044A1.609 1.656 0 1 1 304.478093 632.358326ZM583.457867 603.950382A1.609 1.655 0 1 1 583.457867 635.236664ZM850.92429 598.224992A1.609 1.655 0 1 1 850.92429 629.511274ZM211.901986 865.284693c-43.049924 0-58.067339 47.304858-58.067339 47.304858s49.494898-58.067339 115.039658 1.063734C268.905591 913.653284 248.475649 869.570914 211.901986 865.284693M211.901986 865.284693M289.366819 908.30333c-43.049924 0-58.098625 47.304858-58.098625 47.304858s49.494898-58.067339 115.10223 1.063734C346.370425 956.671922 325.940483 912.589551 289.366819 908.30333M366.800367 863.12594c-43.018637 0-58.098625 47.336144-58.098625 47.336144s49.494898-58.098625 115.10223 1.063734C423.803972 911.494531 403.37403 867.41216 366.800367 863.12594M428.090192 911.494531c-43.018637 0-58.067339 47.304858-58.067339 47.304858s49.526184-58.067339 115.10223 1.09502C485.093798 959.925695 464.663856 915.812038 428.090192 911.494531M486.157531 863.12594c-43.018637 0-58.067339 47.336144-58.067339 47.336144s49.526184-58.098625 115.133517 1.063734C543.192423 911.494531 522.731195 867.41216 486.157531 863.12594M210.806966 949.163214c-43.018637 0-58.067339 47.336144-58.067339 47.336144s49.494898-58.098625 115.10223 1.063734C267.841858 997.563092 247.411916 953.449435 210.806966 949.163214M357.101619 956.671922c-43.018637 0-58.067339 47.336144-58.067339 47.336144s49.494898-58.067339 115.10223 1.063734C414.105225 1005.0718 393.675283 960.989429 357.101619 956.671922M492.633792 962.053162c-43.018637 0-58.067339 47.304858-58.067339 47.304858s49.494898-58.036053 115.10223 1.09502C549.637397 1010.45304 529.207455 966.370669 492.633792 962.053162M569.003605 907.20831c-43.049924 0-58.067339 47.304858-58.067339 47.304858s49.463611-58.067339 115.10223 1.063734C626.038497 955.608188 605.577269 911.494531 569.003605 907.20831M118.324717 897.540849c-43.049924 0-58.067339 47.336144-58.067339 47.336144s49.494898-58.098625 115.039658 1.063734C175.297036 945.940727 154.898381 901.82707 118.324717 897.540849M60.257379 945.940727c-43.049924 0-58.098625 47.304858-58.098625 47.304858s49.494898-58.098625 115.10223 1.063734C117.229698 994.340605 96.831042 950.226948 60.257379 945.940727M58.098625 849.109685C15.048701 849.109685 0 896.44583 0 896.44583s49.494898-58.098625 115.10223 1.063734C115.10223 897.540849 94.672288 853.427192 58.098625 849.109685M646.437152 863.12594c-43.018637 0-58.067339 47.336144-58.067339 47.336144s49.494898-58.098625 115.10223 1.063734C703.440758 911.494531 683.042102 867.41216 646.437152 863.12594M632.452185 956.671922c-43.018637 0-58.098625 47.336144-58.098625 47.336144s49.494898-58.067339 115.133517 1.063734C689.487076 1005.0718 669.025848 960.989429 632.452185 956.671922M719.146471 905.894287c-43.049924 0-58.098625 47.336144-58.098625 47.336144s49.494898-58.067339 115.070944 1.063734C776.087504 954.294164 755.720134 910.180507 719.146471 905.894287M949.507363 878.76908c-43.049924 0-58.098625 47.336144-58.098625 47.336144s49.494898-58.067339 115.10223 1.063734C1006.510969 927.168958 986.081027 883.055301 949.507363 878.76908M949.507363 878.76908M1026.94091 921.787718c-43.018637 0-58.067339 47.304858-58.067339 47.304858s49.494898-58.067339 115.133517 1.063734C1084.007088 970.187595 1063.514574 926.073938 1026.94091 921.787718M1104.405744 876.610327c-43.049924 0-58.067339 47.336144-58.067339 47.336144s49.463611-58.067339 115.10223 1.063734C1161.440636 925.010205 1140.948121 880.896548 1104.405744 876.610327M1165.726856 925.010205c-43.049924 0-58.098625 47.336144-58.098625 47.336144s49.494898-58.098625 115.10223 1.063734C1222.699175 973.410082 1202.300519 929.327712 1165.726856 925.010205M1223.794195 876.610327c-43.049924 0-58.067339 47.336144-58.067339 47.336144s49.463611-58.067339 115.070944 1.063734C1280.7978 925.010205 1260.367858 880.896548 1223.794195 876.610327M948.474916 962.647602c-43.049924 0-58.098625 47.304858-58.098625 47.304858s49.494898-58.067339 115.10223 1.063734C1005.447235 1011.047479 985.017293 966.965108 948.474916 962.647602M1094.706997 970.187595c-43.049924 0-58.067339 47.336144-58.067339 47.336144s49.526184-58.098625 115.10223 1.063734C1151.710602 1018.587473 1131.28066 974.505102 1094.706997 970.187595M1230.239169 975.600122c-43.049924 0-58.067339 47.336144-58.067339 47.336144s49.494898-58.098625 115.10223 1.063734C1287.27406 1023.968714 1266.812832 979.886343 1230.239169 975.600122M1306.608983 920.692698c-43.018637 0-58.067339 47.336144-58.067339 47.336144s49.494898-58.067339 115.039658 1.063734C1363.612588 969.123862 1343.213932 925.010205 1306.608983 920.692698M855.930095 911.025237c-43.018637 0-58.098625 47.304858-58.098625 47.304858s49.526184-58.067339 115.133517 1.063734C912.964986 959.425115 892.503758 915.311457 855.930095 911.025237M797.83147 959.425115c-43.018637 0-58.067339 47.336144-58.067339 47.336144s49.526184-58.067339 115.133517 1.063734C854.897647 1007.824992 834.405133 963.742621 797.83147 959.425115M795.672716 862.625359c-43.018637 0-58.067339 47.336144-58.067339 47.336144s49.494898-58.067339 115.133517 1.063734C852.738894 911.025237 832.246379 866.942866 795.672716 862.625359M1384.073816 876.610327c-43.049924 0-58.098625 47.336144-58.098625 47.336144s49.494898-58.067339 115.10223 1.063734C1441.077421 925.010205 1420.647479 880.896548 1384.073816 876.610327M1370.088848 970.187595c-43.018637 0-58.067339 47.336144-58.067339 47.336144s49.463611-58.098625 115.10223 1.063734C1427.092453 1018.587473 1406.631225 974.505102 1370.088848 970.187595" fill="#70eeea"></path></g></g></svg>