<?xml version="1.0" standalone="no"?><!DOCTYPE svg PUBLIC "-//W3C//DTD SVG 1.1//EN" "http://www.w3.org/Graphics/SVG/1.1/DTD/svg11.dtd"><svg xmlns:xlink="http://www.w3.org/1999/xlink" xmlns="http://www.w3.org/2000/svg" version="1.1" width="200" height="200" viewBox="0 0 200 200"><defs><style type="text/css"><![CDATA[
@font-face {
  font-family: "ifont";
  src: url("//at.alicdn.com/t/font_1442373896_4754455.eot?#iefix") format("embedded-opentype"), url("//at.alicdn.com/t/font_1442373896_4754455.woff") format("woff"), url("//at.alicdn.com/t/font_1442373896_4754455.ttf") format("truetype"), url("//at.alicdn.com/t/font_1442373896_4754455.svg#ifont") format("svg");
}

]]></style></defs><g class="transform-group"><g transform="scale(0.1953125, 0.1953125)"><path d="M547.848463 958.25974l-73.330122 0c-0.225127-1.682315-1.413186-1.917676-2.806929-1.925862-8.501628-0.078795-16.821107-1.730411-25.210172-2.835581-24.981974-3.295046-49.362244-9.258874-73.282027-17.013489-27.093055-8.78406-52.90493-20.552082-77.770248-34.435277-37.872562-21.149693-71.608921-47.783283-102.848413-77.67815-11.69946-11.200086-22.273283-23.470551-32.964786-35.633568-16.200984-18.435884-30.92636-37.981033-44.629453-58.284451-18.518772-27.430746-34.988886-56.044434-48.471968-86.324064-0.626263-1.402953-1.00591-3.169179-3.059686-3.320629l0-3.861958c1.408069-0.057305 1.687432-1.113357 2.165316-2.189875 2.503007-5.54325 5.016247-11.092639 7.705496-16.553001 14.411221-29.264511 31.321356-57.046251 50.074466-83.71054 15.307637-21.75549 31.864732-42.579771 50.124608-61.891605 17.403369-18.406209 35.629475-35.985586 55.379285-52.020794 26.130124-21.218254 54.094012-39.476083 83.925435-54.905494 25.871227-13.380752 53.076846-23.496134 81.099063-31.308053 14.939247-4.169973 30.139437-7.480368 45.465494-9.81146 13.081946-1.995447 26.223245-4.067642 39.539528-4.096295 1.461281-0.005117 2.997264 0.097214 3.284813-1.925862l56.930617 0c0.282433 2.0241 1.818415 1.940189 3.284813 1.920746 10.594289-0.127913 21.026896 1.564635 31.488155 2.860141 22.7614 2.830465 45.059242 7.850805 66.971297 14.539134 32.66598 9.978259 63.710021 23.734564 93.174076 41.006949 33.600259 19.701714 64.23293 43.352367 92.357478 70.241784 15.653515 14.96483 30.157857 31.023574 44.052309 47.669696 16.034185 19.211551 30.892591 39.279608 44.39 60.301388 15.349593 23.906479 29.492708 48.54053 40.947598 74.621535 0.617054 1.408069 1.001817 3.172249 3.060709 3.319605l0 6.756891c-1.084705 0.102331-1.554402 0.762363-2.033309 1.725294-4.644787 9.327436-8.804527 18.874883-13.70821 28.099988-8.439206 15.869433-17.404392 31.395034-27.148313 46.490847-18.790972 29.107945-39.476083 56.734142-62.966077 82.277912-16.202007 17.619286-33.038464 34.568307-51.326992 49.961902-18.498306 15.566534-37.965683 29.850865-58.621119 42.542932-26.471908 16.264429-54.197366 29.826306-83.45983 40.175001-35.30611 12.481266-71.556733 20.664645-108.97904 23.276123C549.266765 956.420859 548.069497 956.572308 547.848463 958.25974L547.848463 958.25974zM510.514159 829.929979c106.3297 0.811482 191.976336-84.995813 192.46957-189.44263 0.512676-108.99439-84.672448-192.34268-189.525518-193.369056-109.61042-1.071402-189.178617 85.7285-193.319937 182.764534C315.282686 743.652987 407.786497 830.623781 510.514159 829.929979L510.514159 829.929979zM510.514159 829.929979M510.865153 734.404346c-51.061956 0.747014-97.720625-43.460838-95.261621-99.774401 2.171456-49.742914 42.053792-91.873454 95.055936-92.016717 55.222719-0.151449 96.827279 42.448788 96.81193 96.523357C607.457072 692.438559 564.046377 734.962048 510.865153 734.404346L510.865153 734.404346zM510.865153 734.404346" fill="#e3e3e3"></path></g></g></svg>