<?xml version="1.0" standalone="no"?><!DOCTYPE svg PUBLIC "-//W3C//DTD SVG 1.1//EN" "http://www.w3.org/Graphics/SVG/1.1/DTD/svg11.dtd"><svg xmlns:xlink="http://www.w3.org/1999/xlink" xmlns="http://www.w3.org/2000/svg" version="1.1" width="200" height="200" viewBox="0 0 200 200"><defs><style type="text/css"><![CDATA[
@font-face {
  font-family: "ifont";
  src: url("//at.alicdn.com/t/font_1442373896_4754455.eot?#iefix") format("embedded-opentype"), url("//at.alicdn.com/t/font_1442373896_4754455.woff") format("woff"), url("//at.alicdn.com/t/font_1442373896_4754455.ttf") format("truetype"), url("//at.alicdn.com/t/font_1442373896_4754455.svg#ifont") format("svg");
}

]]></style></defs><g class="transform-group"><g transform="scale(0.1953125, 0.1953125)"><path d="M512.297984 130.589696c-210.842624 0-381.73696 170.894336-381.73696 381.751296 0 210.855936 170.894336 381.764608 381.73696 381.764608 210.870272 0 381.79328-170.908672 381.79328-381.764608C894.09024 301.484032 723.167232 130.589696 512.297984 130.589696zM758.823936 415.261696l-267.24352 267.230208c-1.718272 1.675264-3.83488 2.501632-5.723136 3.790848-1.316864 1.916928-2.08896 4.076544-3.806208 5.751808-7.469056 7.453696-17.226752 11.188224-26.985472 11.188224-9.786368 0-19.54304-3.733504-27.01312-11.188224L313.530368 577.513472c-14.90944-14.90944-14.90944-39.07584 0-53.997568 14.90944-14.908416 39.089152-14.908416 53.998592 0l87.534592 87.535616 249.759744-249.77408c14.938112-14.90944 39.090176-14.90944 53.998592 0C773.732352 376.184832 773.732352 400.351232 758.823936 415.261696z" fill="#20d28f"></path></g></g></svg>