<?xml version="1.0" standalone="no"?><!DOCTYPE svg PUBLIC "-//W3C//DTD SVG 1.1//EN" "http://www.w3.org/Graphics/SVG/1.1/DTD/svg11.dtd"><svg xmlns:xlink="http://www.w3.org/1999/xlink" xmlns="http://www.w3.org/2000/svg" version="1.1" width="200" height="200" viewBox="0 0 200 200"><defs><style type="text/css"><![CDATA[
@font-face {
  font-family: "ifont";
  src: url("//at.alicdn.com/t/font_1442373896_4754455.eot?#iefix") format("embedded-opentype"), url("//at.alicdn.com/t/font_1442373896_4754455.woff") format("woff"), url("//at.alicdn.com/t/font_1442373896_4754455.ttf") format("truetype"), url("//at.alicdn.com/t/font_1442373896_4754455.svg#ifont") format("svg");
}

]]></style></defs><g class="transform-group"><g transform="scale(0.1953125, 0.1953125)"><path d="M556.023173 471.090332C563.561931 473.711079 571.030069 476.557451 578.392277 479.594738L577.315312 471.090332 556.023173 471.090332ZM902.723088 510.882279 904.223781 490.975023 943.683088 519.699091 940.593435 532.924314 902.723088 510.882279ZM897.197019 640.513737 895.166677 638.951703 851.275915 647.785869 851.275915 596.985057 899.739365 548.405805 913.316192 557.205262 931.518677 555.07048 937.645019 568.989938C926.963642 594.416378 913.316192 618.419634 897.197019 640.513737L897.197019 640.513737ZM866.424054 455.603634 877.017158 471.085126 864.905712 510.882279 843.70185 506.43916 866.424054 455.603634ZM480.411365 190.647973 424.391504 223.745735 389.575503 144.23821 415.299088 124.365668 501.562262 133.165125 480.411365 190.647973ZM600.025158 15.613397C366.005848 15.613397 176.318676 202.033465 176.318676 432.103703 176.318676 441.059361 176.70709 449.928245 177.272055 458.745057 220.403642 450.882822 269.820469 444.339634 321.585435 442.083361L266.925021 396.038075 246.356745 342.599159C260.67509 287.789125 287.88171 238.116447 324.533848 196.739905L336.609986 259.065058 363.816607 232.579905 409.261021 259.065058 332.072607 349.628312 297.238952 349.628312 295.702952 382.778142 333.608607 420.301668 334.544331 441.649463C398.297158 439.792378 464.963088 444.8256 527.550677 462.181532L518.264054 398.207566 550.078677 338.589939 622.729712 345.202549 619.675365 323.143159 580.321985 292.180176 545.470677 320.886888 534.912885 301.049058 562.154815 263.456109 627.249435 228.171498 584.824054 192.817465 636.34185 172.91021 681.733296 186.170142 820.202815 145.834956C861.498262 176.589668 895.978815 215.744651 920.943227 260.679159L895.184331 312.070075 867.9424 312.070075 875.534123 365.075091 843.70185 391.594956 843.70185 437.987361 830.089712 446.786822 801.276469 400.429125 774.06985 407.041735 762.011365 444.565262 749.84695 424.727429 731.644469 384.947634 710.493573 376.148176 702.919504 409.263295 681.715642 422.523228 636.34185 369.500854 668.08585 437.987361 652.884746 520.688378C663.919227 528.62004 674.688885 537.020314 684.840608 546.427228 773.363642 628.399297 708.639781 806.176109 708.639781 806.176109L708.692746 834.778685C890.064331 787.622617 1023.76695 625.257869 1023.76695 432.103703 1023.76695 202.033465 834.062123 15.613397 600.025158 15.613397L600.025158 15.613397ZM52.647724 916.919103C52.647724 1022.477885 101.41131 1022.269612 336.896 1022.269612 572.345381 1022.269612 621.108965 1022.477885 621.108965 916.919103 621.108965 801.710428 493.850485 571.831103 336.896 571.831103 179.906207 571.831103 52.647724 801.710428 52.647724 916.919103M336.048552 621.243445C402.749793 621.243445 456.827585 675.220394 456.827585 741.780394 456.827585 808.375103 402.749793 862.334697 336.048552 862.334697 269.364965 862.334697 215.304828 808.375103 215.304828 741.780394 215.304828 675.220394 269.364965 621.243445 336.048552 621.243445M589.170758 709.984326C539.665654 630.858629 454.091035 546.456732 337.478621 546.456732 220.901517 546.456732 129.765517 637.801005 88.452414 709.272732 67.10731 744.748257 26.112 740.999377 8.244965 709.272732-3.230897 685.547172-39.123862 486.752326 337.478621 486.752326 718.300688 487.255646 678.947312 692.142428 665.582346 709.272732 641.889104 745.216868 597.274485 726.889005 589.170758 709.984326" fill="#ffb875"></path></g></g></svg>